<svg width="30" height="24" viewBox="0 0 30 24" fill="none" xmlns="http://www.w3.org/2000/svg">
<line x1="0.5" y1="2.18557e-08" x2="0.499999" y2="24" stroke="black"/>
<path d="M29.5121 19.1553L25.2812 14.9243C26.1554 13.6068 26.667 12.0293 26.667 10.3334C26.667 5.7383 22.9286 1.99988 18.3335 1.99988C13.7384 1.99988 10 5.7383 10 10.3334C10 14.9285 13.7384 18.6669 18.3335 18.6669C20.0294 18.6669 21.6069 18.1552 22.9245 17.2811L27.1554 21.512C27.8054 22.1628 28.8621 22.1628 29.5121 21.512C30.163 20.8611 30.163 19.8061 29.5121 19.1553ZM12.5001 10.3334C12.5001 7.11666 15.1168 4.49994 18.3335 4.49994C21.5503 4.49994 24.167 7.11666 24.167 10.3334C24.167 13.5501 21.5503 16.1669 18.3335 16.1669C15.1168 16.1669 12.5001 13.5501 12.5001 10.3334Z" fill="black"/>
</svg>
