<svg width="25" height="20" viewBox="0 0 25 20" fill="none" xmlns="http://www.w3.org/2000/svg">
<path d="M23.7437 6.25H22.7437C22.6145 5.68912 22.395 5.15296 22.0937 4.6625L22.7937 3.9625C22.9985 3.72337 23.1055 3.41578 23.0934 3.10118C23.0812 2.78659 22.9508 2.48816 22.7282 2.26555C22.5056 2.04293 22.2071 1.91251 21.8925 1.90036C21.5779 1.88821 21.2704 1.99522 21.0312 2.2L20.3312 2.9C19.8408 2.59877 19.3046 2.37924 18.7437 2.25V1.25C18.7437 0.918479 18.612 0.600537 18.3776 0.366117C18.1432 0.131696 17.8252 0 17.4937 0C17.1622 0 16.8443 0.131696 16.6098 0.366117C16.3754 0.600537 16.2437 0.918479 16.2437 1.25V2.25C15.6861 2.37727 15.1538 2.59697 14.6687 2.9L13.9562 2.2C13.7171 1.99522 13.4095 1.88821 13.0949 1.90036C12.7803 1.91251 12.4819 2.04293 12.2593 2.26555C12.0367 2.48816 11.9062 2.78659 11.8941 3.10118C11.8819 3.41578 11.9889 3.72337 12.1937 3.9625L12.8937 4.675C12.7812 4.8625 12.6937 5.075 12.5937 5.275C11.951 5.09358 11.2865 5.00105 10.6187 5C8.8173 4.99898 7.07568 5.64638 5.71232 6.82383C4.34895 8.00128 3.45493 9.63011 3.19373 11.4125C2.17647 11.6978 1.29679 12.3415 0.717181 13.2248C0.137569 14.1081 -0.102825 15.1713 0.0403978 16.2181C0.183621 17.2648 0.700786 18.2244 1.49637 18.9196C2.29196 19.6147 3.31223 19.9985 4.36873 20H15.8312C17.2667 20 18.6434 19.4298 19.6584 18.4147C20.6735 17.3997 21.2437 16.023 21.2437 14.5875C21.2426 13.9237 21.1154 13.2662 20.8687 12.65L21.0312 12.8C21.2641 13.0309 21.5783 13.1611 21.9062 13.1625C22.0707 13.1635 22.2338 13.1319 22.3861 13.0697C22.5384 13.0075 22.6769 12.9159 22.7937 12.8C23.0265 12.5658 23.1572 12.249 23.1572 11.9187C23.1572 11.5885 23.0265 11.2717 22.7937 11.0375L22.0937 10.3375C22.395 9.84704 22.6145 9.31088 22.7437 8.75H23.7437C24.0752 8.75 24.3932 8.6183 24.6276 8.38388C24.862 8.14946 24.9937 7.83152 24.9937 7.5C24.9937 7.16848 24.862 6.85054 24.6276 6.61612C24.3932 6.3817 24.0752 6.25 23.7437 6.25ZM15.8312 17.5H4.36873C3.87145 17.5 3.39453 17.3025 3.0429 16.9508C2.69127 16.5992 2.49373 16.1223 2.49373 15.625C2.49373 15.1277 2.69127 14.6508 3.0429 14.2992C3.39453 13.9475 3.87145 13.75 4.36873 13.75C4.70025 13.75 5.01819 13.6183 5.25261 13.3839C5.48703 13.1495 5.61873 12.8315 5.61873 12.5C5.62409 11.3196 6.04688 10.1792 6.81227 9.28059C7.57767 8.38198 8.6363 7.78313 9.80079 7.59005C10.9653 7.39697 12.1605 7.62209 13.175 8.22559C14.1895 8.82908 14.9577 9.77202 15.3437 10.8875C15.4152 11.1023 15.5436 11.2937 15.7153 11.4412C15.8871 11.5887 16.0956 11.6868 16.3187 11.725C17.0282 11.8577 17.6632 12.249 18.1005 12.8233C18.5378 13.3975 18.7464 14.1136 18.6856 14.8329C18.6249 15.5521 18.2993 16.2232 17.7719 16.716C17.2445 17.2088 16.5529 17.4882 15.8312 17.5ZM19.5812 9.5625C19.3609 9.76983 19.1074 9.93883 18.8312 10.0625C18.4155 9.79183 17.9658 9.57746 17.4937 9.425C16.9194 8.17095 16.0167 7.09551 14.8812 6.3125C15.0178 5.99186 15.2128 5.69939 15.4562 5.45C16.0155 4.93166 16.7499 4.64366 17.5125 4.64366C18.275 4.64366 19.0094 4.93166 19.5687 5.45C20.1048 6.00274 20.4046 6.7425 20.4046 7.5125C20.4046 8.28251 20.1048 9.02226 19.5687 9.575L19.5812 9.5625Z" fill="#374557"/>
</svg>
