<svg width="20" height="20" viewBox="0 0 20 20" fill="none" xmlns="http://www.w3.org/2000/svg">
<path d="M19.3702 6.61083C19.3702 6.61083 19.3702 6.61083 19.3702 6.56083C18.6656 4.63705 17.3871 2.97611 15.7076 1.80269C14.0282 0.629272 12.0289 0 9.98016 0C7.93141 0 5.93209 0.629272 4.25267 1.80269C2.57324 2.97611 1.29476 4.63705 0.590156 6.56083C0.590156 6.56083 0.590156 6.56083 0.590156 6.61083C-0.196719 8.78172 -0.196719 11.1599 0.590156 13.3308C0.590156 13.3308 0.590156 13.3308 0.590156 13.3808C1.29476 15.3046 2.57324 16.9655 4.25267 18.139C5.93209 19.3124 7.93141 19.9417 9.98016 19.9417C12.0289 19.9417 14.0282 19.3124 15.7076 18.139C17.3871 16.9655 18.6656 15.3046 19.3702 13.3808C19.3702 13.3808 19.3702 13.3808 19.3702 13.3308C20.157 11.1599 20.157 8.78172 19.3702 6.61083ZM2.22016 11.9708C1.87338 10.66 1.87338 9.28161 2.22016 7.97083H4.08016C3.92019 9.29936 3.92019 10.6423 4.08016 11.9708H2.22016ZM3.04016 13.9708H4.44016C4.67488 14.8627 5.01037 15.7249 5.44016 16.5408C4.45945 15.8728 3.63965 14.9949 3.04016 13.9708ZM4.44016 5.97083H3.04016C3.63103 4.94991 4.44035 4.07229 5.41016 3.40083C4.99071 4.21807 4.6653 5.08025 4.44016 5.97083ZM8.96016 17.6708C7.73192 16.7695 6.8693 15.4561 6.53016 13.9708H8.96016V17.6708ZM8.96016 11.9708H6.10016C5.91355 10.644 5.91355 9.29763 6.10016 7.97083H8.96016V11.9708ZM8.96016 5.97083H6.53016C6.8693 4.4856 7.73192 3.17215 8.96016 2.27083V5.97083ZM16.8802 5.97083H15.4802C15.2454 5.07899 14.9099 4.21677 14.4802 3.40083C15.4609 4.0689 16.2807 4.94677 16.8802 5.97083ZM10.9602 2.27083C12.1884 3.17215 13.051 4.4856 13.3902 5.97083H10.9602V2.27083ZM10.9602 17.6708V13.9708H13.3902C13.051 15.4561 12.1884 16.7695 10.9602 17.6708ZM13.8202 11.9708H10.9602V7.97083H13.8202C14.0068 9.29763 14.0068 10.644 13.8202 11.9708ZM14.5102 16.5408C14.9399 15.7249 15.2754 14.8627 15.5102 13.9708H16.9102C16.3107 14.9949 15.4909 15.8728 14.5102 16.5408ZM17.7002 11.9708H15.8402C15.9215 11.3073 15.9616 10.6393 15.9602 9.97083C15.9613 9.30233 15.9212 8.6344 15.8402 7.97083H17.7002C18.0469 9.28161 18.0469 10.66 17.7002 11.9708Z" fill="black"/>
</svg>
