<svg width="21" height="21" viewBox="0 0 21 21" fill="none" xmlns="http://www.w3.org/2000/svg">
<path d="M0.999931 0H2.99993H3.08993H3.29993L3.45993 0.0699999L3.62993 0.18C3.67812 0.218194 3.72174 0.261815 3.75993 0.31C3.79903 0.359504 3.83257 0.41316 3.85993 0.47C3.89483 0.525991 3.92176 0.586574 3.93993 0.65V0.74L4.61993 4H5.75993L8.87993 0.89C9.44987 0.342433 10.2096 0.0366263 10.9999 0.0366263C11.7903 0.0366263 12.55 0.342433 13.1199 0.89L16.2399 4H18.9999C19.1761 3.9993 19.3494 4.04517 19.5022 4.13298C19.655 4.22078 19.7818 4.3474 19.8699 4.5C19.9577 4.65202 20.0039 4.82446 20.0039 5C20.0039 5.17554 19.9577 5.34798 19.8699 5.5L15.8699 12.5L16.6399 14C16.7597 13.9902 16.8801 13.9902 16.9999 14C17.5933 14 18.1733 14.1759 18.6666 14.5056C19.16 14.8352 19.5445 15.3038 19.7716 15.8519C19.9986 16.4001 20.058 17.0033 19.9423 17.5853C19.8265 18.1672 19.5408 18.7018 19.1213 19.1213C18.7017 19.5409 18.1671 19.8266 17.5852 19.9424C17.0033 20.0581 16.4001 19.9987 15.8519 19.7716C15.3037 19.5446 14.8352 19.1601 14.5055 18.6667C14.1759 18.1734 13.9999 17.5933 13.9999 17C14.0031 16.2227 14.3078 15.477 14.8499 14.92L13.8499 12.92L12.4699 12.78L8.52993 18.69C8.25451 19.1056 7.8776 19.444 7.43488 19.6732C6.99215 19.9024 6.49826 20.0149 5.99993 20C5.61364 19.9992 5.23072 19.9281 4.86993 19.79C4.22582 19.5395 3.68795 19.0743 3.34723 18.473C3.0065 17.8718 2.88383 17.1713 2.99993 16.49L3.99993 11L2.20993 2H0.999931C0.734715 2 0.48036 1.89464 0.292824 1.70711C0.105288 1.51957 -6.86646e-05 1.26522 -6.86646e-05 1C-6.86646e-05 0.734784 0.105288 0.48043 0.292824 0.292893C0.48036 0.105357 0.734715 0 0.999931 0ZM16.9999 18C17.1977 18 17.3911 17.9414 17.5555 17.8315C17.72 17.7216 17.8481 17.5654 17.9238 17.3827C17.9995 17.2 18.0193 16.9989 17.9807 16.8049C17.9421 16.6109 17.8469 16.4327 17.707 16.2929C17.5672 16.153 17.389 16.0578 17.195 16.0192C17.001 15.9806 16.8 16.0004 16.6172 16.0761C16.4345 16.1518 16.2783 16.28 16.1685 16.4444C16.0586 16.6089 15.9999 16.8022 15.9999 17C15.9999 17.2652 16.1053 17.5196 16.2928 17.7071C16.4804 17.8946 16.7347 18 16.9999 18ZM11.6999 2.29C11.513 2.10677 11.2617 2.00414 10.9999 2.00414C10.7382 2.00414 10.4869 2.10677 10.2999 2.29L8.58993 4H13.4099L11.6999 2.29ZM14.4499 10.94L17.2799 6H4.99993L5.81993 10.08L14.4499 10.94ZM5.63993 17.94C5.85322 18.0237 6.08878 18.0317 6.30722 17.9625C6.52566 17.8933 6.71372 17.7512 6.83993 17.56L10.1799 12.56L5.80993 12.13L4.99993 16.82C4.95978 17.0507 5.00185 17.2881 5.1188 17.491C5.23576 17.6938 5.42018 17.8492 5.63993 17.93V17.94Z" fill="black"/>
</svg>
