<svg width="16" height="16" viewBox="0 0 16 16" fill="none" xmlns="http://www.w3.org/2000/svg">
<path d="M4.99999 7.25024C4.85166 7.25024 4.70665 7.29423 4.58331 7.37664C4.45998 7.45905 4.36385 7.57619 4.30708 7.71323C4.25032 7.85028 4.23546 8.00108 4.2644 8.14656C4.29334 8.29205 4.36477 8.42568 4.46966 8.53057C4.57455 8.63546 4.70819 8.70689 4.85367 8.73583C4.99916 8.76477 5.14996 8.74992 5.287 8.69315C5.42405 8.63639 5.54118 8.54026 5.62359 8.41692C5.706 8.29359 5.74999 8.14858 5.74999 8.00024C5.74999 7.80133 5.67097 7.61057 5.53032 7.46991C5.38967 7.32926 5.1989 7.25024 4.99999 7.25024ZM7.99999 7.25024C7.85166 7.25024 7.70665 7.29423 7.58331 7.37664C7.45998 7.45905 7.36385 7.57619 7.30708 7.71323C7.25032 7.85028 7.23546 8.00108 7.2644 8.14656C7.29334 8.29205 7.36477 8.42568 7.46966 8.53057C7.57455 8.63546 7.70819 8.70689 7.85367 8.73583C7.99916 8.76477 8.14996 8.74992 8.287 8.69315C8.42405 8.63639 8.54118 8.54026 8.62359 8.41692C8.70601 8.29359 8.74999 8.14858 8.74999 8.00024C8.74999 7.80133 8.67097 7.61057 8.53032 7.46991C8.38967 7.32926 8.1989 7.25024 7.99999 7.25024ZM11 7.25024C10.8517 7.25024 10.7067 7.29423 10.5833 7.37664C10.46 7.45905 10.3638 7.57619 10.3071 7.71323C10.2503 7.85028 10.2355 8.00108 10.2644 8.14656C10.2933 8.29205 10.3648 8.42568 10.4697 8.53057C10.5746 8.63546 10.7082 8.70689 10.8537 8.73583C10.9992 8.76477 11.15 8.74992 11.287 8.69315C11.424 8.63639 11.5412 8.54026 11.6236 8.41692C11.706 8.29359 11.75 8.14858 11.75 8.00024C11.75 7.80133 11.671 7.61057 11.5303 7.46991C11.3897 7.32926 11.1989 7.25024 11 7.25024ZM7.99999 0.500244C7.01508 0.500244 6.03981 0.694237 5.12987 1.07115C4.21992 1.44806 3.39313 2.0005 2.69669 2.69694C1.29017 4.10347 0.499991 6.01112 0.499991 8.00024C0.493434 9.73209 1.09309 11.4116 2.19499 12.7477L0.694991 14.2477C0.590923 14.3532 0.520426 14.4871 0.492395 14.6326C0.464364 14.7781 0.480056 14.9287 0.537491 15.0652C0.599784 15.2002 0.700769 15.3136 0.827626 15.391C0.954483 15.4685 1.10149 15.5065 1.24999 15.5002H7.99999C9.98911 15.5002 11.8968 14.7101 13.3033 13.3035C14.7098 11.897 15.5 9.98937 15.5 8.00024C15.5 6.01112 14.7098 4.10347 13.3033 2.69694C11.8968 1.29042 9.98911 0.500244 7.99999 0.500244ZM7.99999 14.0002H3.05749L3.75499 13.3027C3.82586 13.2333 3.88223 13.1504 3.92086 13.059C3.95948 12.9676 3.97958 12.8695 3.97999 12.7702C3.97717 12.5724 3.8963 12.3837 3.75499 12.2452C2.77293 11.2643 2.16137 9.97315 2.02451 8.59184C1.88765 7.21053 2.23395 5.8245 3.00441 4.66989C3.77487 3.51527 4.92183 2.66351 6.24988 2.25972C7.57792 1.85593 9.00489 1.9251 10.2877 2.45543C11.5704 2.98576 12.6296 3.94445 13.2848 5.16816C13.94 6.39187 14.1506 7.8049 13.8808 9.1665C13.611 10.5281 12.8775 11.754 11.8051 12.6354C10.7328 13.5168 9.38806 13.9992 7.99999 14.0002Z" fill="black"/>
</svg>
