<svg width="18" height="18" viewBox="0 0 18 18" fill="none" xmlns="http://www.w3.org/2000/svg">
<path d="M5.25 16.5002H3C2.60218 16.5002 2.22064 16.3422 1.93934 16.0609C1.65804 15.7796 1.5 15.3981 1.5 15.0002V9.75024C1.5 9.35242 1.65804 8.97089 1.93934 8.68958C2.22064 8.40828 2.60218 8.25024 3 8.25024H5.25M10.5 6.75024V3.75024C10.5 3.15351 10.2629 2.58121 9.84099 2.15925C9.41903 1.7373 8.84674 1.50024 8.25 1.50024L5.25 8.25024V16.5002H13.71C14.0717 16.5043 14.4228 16.3775 14.6984 16.1432C14.9741 15.9089 15.1558 15.5829 15.21 15.2252L16.245 8.47524C16.2776 8.26026 16.2631 8.04075 16.2025 7.83193C16.1419 7.62311 16.0366 7.42997 15.8939 7.26588C15.7512 7.10179 15.5746 6.97069 15.3762 6.88166C15.1778 6.79262 14.9624 6.74778 14.745 6.75024H10.5Z" stroke="black" stroke-width="2" stroke-linecap="round" stroke-linejoin="round"/>
</svg>
