<svg width="12" height="16" viewBox="0 0 12 16" fill="none" xmlns="http://www.w3.org/2000/svg">
<path d="M11.7075 4.43773C11.6696 4.34504 11.6135 4.26088 11.5425 4.19023L8.07 0.717728C7.92948 0.57804 7.73939 0.499634 7.54125 0.499634C7.34311 0.499634 7.15302 0.57804 7.0125 0.717728C6.9422 0.787451 6.88641 0.870402 6.84833 0.961796C6.81025 1.05319 6.79065 1.15122 6.79065 1.25023C6.79065 1.34924 6.81025 1.44727 6.84833 1.53866C6.88641 1.63006 6.9422 1.71301 7.0125 1.78273L9.2025 3.97273H3.2025C2.40685 3.97273 1.64379 4.2888 1.08118 4.85141C0.51857 5.41402 0.202499 6.17708 0.202499 6.97273V14.7502C0.202499 14.9491 0.281517 15.1399 0.422169 15.2806C0.562822 15.4212 0.753587 15.5002 0.952499 15.5002C1.15141 15.5002 1.34218 15.4212 1.48283 15.2806C1.62348 15.1399 1.7025 14.9491 1.7025 14.7502V6.97273C1.7025 6.5749 1.86053 6.19337 2.14184 5.91207C2.42314 5.63076 2.80468 5.47273 3.2025 5.47273H9.2025L7.0125 7.66273C6.90673 7.76763 6.83459 7.90166 6.80529 8.04772C6.77599 8.19378 6.79085 8.34526 6.84797 8.48284C6.9051 8.62042 7.0019 8.73788 7.12604 8.82023C7.25018 8.90258 7.39603 8.94609 7.545 8.94523C7.74283 8.94241 7.93153 8.86154 8.07 8.72023L11.5425 5.25523C11.6117 5.18028 11.6675 5.09403 11.7075 5.00023C11.7805 4.81983 11.7805 4.61813 11.7075 4.43773Z" fill="black"/>
</svg>
